<?xml version="1.0" encoding="utf-8"?>
<!-- Generator: Adobe Illustrator 27.8.1, SVG Export Plug-In . SVG Version: 6.00 Build 0)  -->
<svg version="1.1" id="Ebene_1" xmlns="http://www.w3.org/2000/svg" xmlns:xlink="http://www.w3.org/1999/xlink" x="0px" y="0px"
	 viewBox="0 0 137.1 137.1" style="enable-background:new 0 0 137.1 137.1;" xml:space="preserve">
<style type="text/css">
	.st0{fill:#FFFFFF;}
	.st1{fill:#48606B;}
</style>
<g>
	<path class="st0" d="M68.7,135.5c37.1,0,67.1-30,67.1-67.1c0-37.1-30-67.1-67.1-67.1c-37.1,0-67.1,30-67.1,67.1
		C1.6,105.4,31.6,135.5,68.7,135.5"/>
	<path class="st1" d="M105.1,107l-2.4-17.6l-0.3-11.5l0,0c-1.8-22-0.1-1.6-1.9-24.1c-0.2-2.5-2.3-4.4-4.7-4.3
		c-2.1,0.1-6.8,0.4-6.8,0.4l-6.6-3.4l-5.1-11.2c-0.7-1.5-2.5-2.2-4-1.5c-1.5,0.7-2.1,2.6-1.4,4.1l5.6,12.1c0.3,0.6,0.8,1.1,1.4,1.4
		l6.6,3.5l0.9,11.5l2.7-2.8c0,0,2.3-5.7,2.4-5.7l-0.8,7.8l-7.2,7.6c-1.2,1.2-1.1,3.2,0.1,4.4c1.2,1.2,3.1,1.2,4.3-0.1l8-8.4
		c0.5-0.5,0.8-1.1,0.8-1.8l1-9.9L99,67.8c0.3,1.7-0.8,2.6-1.6,3.4l-6.9,7.2c-1.2,1.2-2.4,2.9-5.1,2.9l-2.2,6.3
		c-0.1,0.3-0.2,0.7-0.2,1l-1.2,18.6c-0.1,2.1,1.5,4,3.6,4c1.9,0,3.5-1.5,3.6-3.5l1.1-18l4.1-11.4l0.8,0l0.3,11.5c0,0.1,0,0.3,0,0.4
		l2.4,17.9c0.3,2,2.1,3.5,4.1,3.2C104,110.9,105.4,109.1,105.1,107"/>
	<path class="st1" d="M97.3,40.9c0,3.5-2.8,6.4-6.2,6.4c-3.4,0-6.2-2.9-6.2-6.4c0-3.5,2.8-6.4,6.2-6.4
		C94.5,34.5,97.3,37.3,97.3,40.9"/>
	<path class="st1" d="M109.5,35.6c-0.1-0.7-0.8-1.1-1.5-1l-7.3,1.5c-0.7,0.1-1.1,0.8-1,1.5c0.1,0.7,0.8,1.1,1.5,1l7.3-1.5
		C109.2,37,109.6,36.3,109.5,35.6"/>
	<path class="st1" d="M106.8,25.9c-0.5-0.5-1.3-0.5-1.8,0l-6.9,6.9c-0.5,0.5-0.5,1.3,0,1.8c0.5,0.5,1.3,0.5,1.8,0l6.9-6.9
		C107.3,27.2,107.3,26.4,106.8,25.9"/>
	<path class="st1" d="M52.8,43c0,3.4-2.7,6.2-6,6.2c-3.3,0-6-2.8-6-6.2c0-3.4,2.7-6.2,6-6.2C50.2,36.8,52.8,39.6,52.8,43"/>
	<path class="st1" d="M38.8,63.8L37.3,62l2.1-1.4L38.8,63.8z M68.2,53.6c-0.8-1.3-2.5-1.7-3.7-0.9l-8.8,5.7l-6.4-4.3l4.3,1.3
		l-0.2-0.9c-0.3-1.8-1.8-3.1-3.4-3.1h-6c-0.8,0-1.6,0.3-2.2,0.9c-0.3,0.1,0.5-0.4-10,6.9c-0.7,0.5-1.1,1.2-1.2,2
		c-0.1,0.8,0.1,1.6,0.7,2.2l6.4,7.3l-2.5,13.8c-0.2,1,0.5,2,1.5,2h3.5v21.2c0,2,1.6,3.6,3.5,3.6c0.5,0,0.9-0.1,1.3-0.3
		c-0.6-0.9-1-2.1-1-3.3V86.5h2.1v21.2c0,2,1.6,3.6,3.5,3.6c1.9,0,3.5-1.6,3.5-3.6V86.5h4.3c0.9,0,1.6-1,1.5-2l-3-16.8
		c-1.1,0.1-2.2-0.4-3-1.3l-6.4-7.6l7.9,5.3c0.9,0.6,2,0.6,2.9,0l10.3-6.6C68.6,56.6,69,54.9,68.2,53.6"/>
	<path class="st1" d="M37.3,38.1L30,36.6c-0.7-0.1-1.3,0.3-1.5,1c-0.1,0.7,0.3,1.4,1,1.5l7.3,1.5c0.7,0.1,1.3-0.3,1.5-1
		C38.4,38.9,38,38.3,37.3,38.1"/>
	<path class="st1" d="M39.9,34.8l-6.9-6.9c-0.5-0.5-1.3-0.5-1.8,0c-0.5,0.5-0.5,1.3,0,1.8l6.9,6.9c0.5,0.5,1.3,0.5,1.8,0
		C40.4,36.1,40.4,35.3,39.9,34.8"/>
</g>
</svg>
