<?xml version="1.0" encoding="utf-8"?>
<!-- Generator: Adobe Illustrator 27.7.0, SVG Export Plug-In . SVG Version: 6.00 Build 0)  -->
<svg version="1.1" id="Ebene_1" xmlns="http://www.w3.org/2000/svg" xmlns:xlink="http://www.w3.org/1999/xlink" x="0px" y="0px"
	 viewBox="0 0 595.3 841.9" style="enable-background:new 0 0 595.3 841.9;" xml:space="preserve">
<style type="text/css">
	.st0{clip-path:url(#SVGID_00000158712878236991140060000007338086256934580384_);fill:#B1154A;}
	.st1{fill:#FFFFFF;}
</style>
<g>
	<g>
		<g>
			<g>
				<g>
					<defs>
						<rect id="SVGID_1_" x="0.5" y="0.5" width="594.5" height="594.5"/>
					</defs>
					<clipPath id="SVGID_00000039851225170105579690000004697978819452502457_">
						<use xlink:href="#SVGID_1_"  style="overflow:visible;"/>
					</clipPath>
					<path style="clip-path:url(#SVGID_00000039851225170105579690000004697978819452502457_);fill:#B1154A;" d="M595,299.1
						C595,135.3,460.2,0.5,296.4,0.5S-2.1,135.3-2.1,299.1s134.8,298.6,298.6,298.6C462.9,597.6,595,462.9,595,299.1"/>
				</g>
			</g>
		</g>
	</g>
	<path class="st1" d="M211.9,169.5v256.3c0,15.8,13.2,29,29,29h113.5c15.8,0,29-13.2,29-29V169.5c0-15.8-13.2-29-29-29H241
		C225.2,143.1,211.9,153.7,211.9,169.5z M354.5,169.5v256.3H241v-29h58.1v-26.4H241v-29h58.1v-29H241v-29.2h58.1v-29H241v-29h58.1
		v-29H241v-29h113.5L354.5,169.5L354.5,169.5z"/>
</g>
</svg>
