<?xml version="1.0" encoding="utf-8"?>
<!-- Generator: Adobe Illustrator 27.7.0, SVG Export Plug-In . SVG Version: 6.00 Build 0)  -->
<svg version="1.1" id="Ebene_1" xmlns="http://www.w3.org/2000/svg" xmlns:xlink="http://www.w3.org/1999/xlink" x="0px" y="0px"
	 viewBox="0 0 595.3 841.9" style="enable-background:new 0 0 595.3 841.9;" xml:space="preserve">
<style type="text/css">
	.st0{clip-path:url(#SVGID_00000070104363537693275990000006810979698259061651_);fill:#C6C6C6;}
	.st1{fill:none;}
	.st2{fill:#FFFFFF;}
</style>
<g>
	<g>
		<g>
			<g>
				<g>
					<g>
						<defs>
							<rect id="SVGID_1_" x="0.3" y="-2.3" width="594.2" height="594.2"/>
						</defs>
						<clipPath id="SVGID_00000009564275599505540350000000896491585903500679_">
							<use xlink:href="#SVGID_1_"  style="overflow:visible;"/>
						</clipPath>
						<path style="clip-path:url(#SVGID_00000009564275599505540350000000896491585903500679_);fill:#C6C6C6;" d="M342.8,309.1
							c7.7-12.9,7.7-25.9,7.7-39c0-23.4-7.7-44-23.4-59.7C311.5,194.7,293.3,187,270,187c-23.4,0-41.5,7.7-57.2,23.4
							s-23.4,36.3-23.4,59.7c0,15.7,2.5,25.9,7.7,39c7.7,12.9,15.7,23.4,25.9,28.6h91.2C329.9,330,337.6,322.2,342.8,309.1
							 M594.5,296.2c0-163.4-132.3-295.7-295.7-295.7S3,132.7,3,296.2s132.3,295.7,295.7,295.7S594.5,459.8,594.5,296.2"/>
					</g>
				</g>
			</g>
		</g>
	</g>
	<g>
		<path class="st1" d="M246.8-41.1h295.7v295.7H246.8V-41.1z"/>
		<path class="st2" d="M371.4,122.3l2.5,15.7h41.5v46.7h-25.9L387,169h-57.2v-46.7H371.4 M384.3,106.9h-70.1v132.3h15.7v-54.5h44
			l2.5,15.7h54.7v-77.8h-44L384.3,106.9z"/>
		<path class="st2" d="M301.3,257.3h36.3v197.2h-36.3V257.3z M153.3,379.2h36.3v72.6h-36.3V379.2z M228.6,317h36.3v134.8h-36.3
			L228.6,317L228.6,317z"/>
	</g>
</g>
</svg>
