<?xml version="1.0" encoding="utf-8"?>
<!-- Generator: Adobe Illustrator 27.8.1, SVG Export Plug-In . SVG Version: 6.00 Build 0)  -->
<svg version="1.1" id="Ebene_1" xmlns="http://www.w3.org/2000/svg" xmlns:xlink="http://www.w3.org/1999/xlink" x="0px" y="0px"
	 viewBox="0 0 1000 1000" style="enable-background:new 0 0 1000 1000;" xml:space="preserve">
<style type="text/css">
	.st0{fill-rule:evenodd;clip-rule:evenodd;fill:#7A8A91;}
	.st1{fill-rule:evenodd;clip-rule:evenodd;fill:url(#SVGID_1_);}
	.st2{fill-rule:evenodd;clip-rule:evenodd;fill:#D3D8DA;}
	.st3{fill-rule:evenodd;clip-rule:evenodd;fill:#5D5D5D;}
	.st4{fill:#FFFFFF;}
</style>
<path class="st0" d="M274.4,106.3c6.9,0,13.7,0.7,20.2,2l11.2,3.5l-0.1-0.8l5.5,2.5l2.1,0.7l3.2,1.7l162.5,72.8L322.2,295.4
	l-0.1-1.5l-8.6,4.6c-12,5.1-25.2,7.9-39.1,7.9c-55.4,0-100.3-44.8-100.3-100S219,106.3,274.4,106.3z"/>
<path class="st0" d="M847.6,338.3c55.5,0,100.5,44.7,100.5,100c0,20.7-6.3,39.9-17.2,55.9l-3,3.6l1.3,0.3L801.5,638.3l-53.5-181.7
	l0.9,0.2l-1.9-18.6C747.1,383.1,792.1,338.3,847.6,338.3z"/>
<path class="st0" d="M208.2,670.7L392.5,715l-1.1,1.2l6.9,2.1c35.9,15.2,61.1,50.8,61.1,92.2c0,55.3-44.8,100.1-100.1,100.1
	c-34.5,0-65-17.5-83-44.1l-8.8-16.3l-0.7,0.8L208.2,670.7z"/>
<linearGradient id="SVGID_1_" gradientUnits="userSpaceOnUse" x1="1799.0249" y1="-264.6077" x2="2672.2249" y2="53.2123" gradientTransform="matrix(1 0 0 -1 -1737 400.11)">
	<stop  offset="0" style="stop-color:#94191E"/>
	<stop  offset="0.36" style="stop-color:#94191E"/>
	<stop  offset="0.67" style="stop-color:#E00D7F"/>
	<stop  offset="1" style="stop-color:#E00D7F"/>
</linearGradient>
<path class="st1" d="M136.1,505.8c0-200.2,162.3-362.5,362.5-362.5s362.5,162.3,362.5,362.5c0,200.2-162.3,362.5-362.5,362.5
	S136.1,706,136.1,505.8z"/>
<path class="st2" d="M123.8,224.3l12.8,26.7c42.2,77.8,114.3,136.8,201,161.5l16.5,4.1l-0.2,0.2c-66.2,66.3-107.1,158-107.1,259.2
	c0,75.9,23,146.5,62.5,205l18.9,25.3l-5.1-1.9c-164-69.5-279-232.2-279-421.9c0-94.8,28.8-182.9,78-256L123.8,224.3z"/>
<path class="st2" d="M894.1,311.5l-29.5-2.8c-88.4-4-176.3,27.5-242.2,89.1l-12.1,12.1l0-0.2c-22.5-91-79.8-173.5-166.4-225.7
	c-65-39.2-137.3-55.9-207.8-52.2l-31.5,3.1l4.2-3.4C353.1,26.6,551.9,11.9,714.3,109.8c81.2,49,141.7,119.1,178.8,199.1L894.1,311.5
	z"/>
<path class="st2" d="M449.1,926.3l17.1-24.2c47.5-74.6,64-166.5,43.5-254.4l-4.4-16.5l0.2,0.1c90.2,25.8,190.2,17.2,278.6-31.8
	c66.4-36.8,116.8-91.2,148.8-154.1l13-28.9l0.8,5.3c18.9,177.4-67.4,357.1-233.2,449c-82.9,46-173.9,63.5-261.7,55.8L449.1,926.3z"
	/>
<g>
	<g transform="translate(-1760 -609)">
		<path class="st3" d="M1946.9,1024.1c-0.5,2-1.3,3.9-2.6,5.7c-1.3,1.8-2.8,3.3-4.7,4.4l-4-5.2c1.2-0.9,2.1-1.9,2.9-2.9
			s1.3-2.2,1.6-3.6c0.3-1.4,0.3-2.5-0.1-3.4s-1.1-1.5-2.1-1.8c-0.5-0.1-1-0.1-1.5,0.1c-0.4,0.2-0.9,0.5-1.3,0.9s-0.8,0.9-1.2,1.5
			c-0.4,0.6-0.9,1.2-1.4,1.9l-2.9,4.1c-1.4,1.9-2.9,3.3-4.7,4.2c-1.8,0.9-3.9,1-6.4,0.4c-1.5-0.3-2.8-1-3.9-1.9
			c-1.2-0.9-2.1-2-2.8-3.4c-0.7-1.4-1.2-2.9-1.4-4.7c-0.2-1.8-0.1-3.7,0.4-5.8c0.5-2.3,1.5-4.5,2.9-6.5c1.4-2.1,3.1-3.8,5.2-5.2
			l4.3,5.8c-1.4,1-2.6,2.2-3.6,3.5c-1,1.4-1.7,2.8-2.1,4.2c-0.4,1.6-0.4,2.9,0,3.9c0.4,0.9,1.2,1.5,2.2,1.8c0.5,0.1,1,0.1,1.5,0
			s0.9-0.4,1.3-0.8s0.8-0.8,1.2-1.4c0.4-0.6,0.9-1.2,1.4-1.9l3-4.1c0.6-0.8,1.2-1.6,2-2.3s1.6-1.3,2.5-1.8s1.9-0.8,3-0.9
			c1.1-0.2,2.3-0.1,3.6,0.2c1.4,0.3,2.7,1,3.8,1.9c1.1,0.9,2,2,2.7,3.4c0.7,1.3,1.1,2.8,1.3,4.5
			C1947.5,1020.6,1947.3,1022.3,1946.9,1024.1z"/>
		<path class="st3" d="M1943.3,1036.8l-3.8,27.6l-6.8-0.9l1.3-9.8l-28.8-4l1.1-8.1l28.8,4l1.4-9.8L1943.3,1036.8z"/>
		<path class="st3" d="M1932.5,1075l-10-0.5l-0.2,4.2c-0.1,2.1,0.3,3.8,1.1,4.9c0.9,1.2,2.2,1.8,3.9,1.8s3-0.4,3.8-1.5
			s1.2-2.7,1.3-4.8L1932.5,1075z M1939.3,1067.2l-0.6,12.9c-0.1,1.9-0.4,3.7-0.8,5.3c-0.4,1.7-1.1,3.1-2,4.3
			c-0.9,1.2-2.1,2.2-3.6,2.8c-1.5,0.7-3.2,1-5.4,0.9c-2.6-0.1-4.8-0.8-6.4-2s-2.9-2.8-3.6-4.8l-14.7,7.5l0.4-9.1l13.2-6.3l0.2-4.4
			l-12.9-0.6l0.4-8.1L1939.3,1067.2z"/>
		<path class="st3" d="M1932.6,1110.1c-1.9-0.4-3.9-0.7-5.9-1.1s-3.9-0.8-5.8-1.2l-3.3-0.7l0.3,7.6l3.3-1c1.8-0.6,3.7-1.2,5.7-1.7
			c2-0.6,3.9-1.1,5.8-1.7L1932.6,1110.1z M1938.5,1105.2l0.5,9.7l-35.3,12.9l-0.4-8.6l8.4-2.6l-0.5-10.9l-8.6-1.8l-0.4-8.2
			L1938.5,1105.2z"/>
		<path class="st3" d="M1939.5,1125l3.6,27.6l-6.8,0.9l-1.3-9.8l-28.8,3.8l-1-8.1l28.8-3.7l-1.3-9.8L1939.5,1125z"/>
		<path class="st3" d="M1943.7,1155.9l4.7,21.9l-6.7,1.4l-3-14l-7,1.5l2.6,11.9l-6.6,1.4l-2.6-11.9l-8.1,1.7l3.1,14.6l-6.7,1.4
			l-4.8-22.5L1943.7,1155.9z"/>
		<path class="st3" d="M1955.1,1198.1c0.8,2.5,1,4.8,0.6,6.8c-0.4,2.1-0.9,3.8-1.8,5.3l-6.2-2.5c0.5-1.1,0.9-2.2,1.1-3.4
			c0.2-1.2,0.1-2.4-0.4-3.9c-0.4-1.3-1-2.5-1.9-3.4c-0.8-0.9-1.9-1.7-3.1-2.2s-2.6-0.8-4.1-0.8s-3.1,0.2-4.8,0.8
			c-3.5,1.1-6,2.8-7.5,4.9c-1.5,2.2-1.7,4.9-0.7,8.1c0.2,0.7,0.5,1.4,0.9,2s0.8,1.1,1.3,1.4l5.9-1.8l-1.8-5.7l6.3-2l3.9,12.5
			l-15.8,4.9c-1.5-0.8-3-2.1-4.4-3.8c-1.4-1.7-2.5-3.8-3.2-6.2c-0.7-2.3-1-4.7-0.9-6.9c0.1-2.3,0.7-4.4,1.7-6.4s2.5-3.7,4.4-5.2
			s4.3-2.8,7.2-3.7c2.8-0.9,5.5-1.2,8-1s4.8,0.8,6.8,1.8s3.7,2.4,5.2,4.2C1953.3,1193.8,1954.4,1195.8,1955.1,1198.1z"/>
		<path class="st3" d="M1960.1,1214.5l3,7.5l-33.4,13.1l-3-7.5L1960.1,1214.5z"/>
		<path class="st3" d="M1965.5,1228.3l9.7,20.2l-6.2,2.9l-6.2-12.9l-6.5,3.1l5.3,11l-6.1,2.9l-5.3-11l-7.5,3.6l6.4,13.5l-6.2,2.9
			l-9.9-20.7L1965.5,1228.3z"/>
		<path class="st3" d="M1960.6,1261.5l6.8,11.7l-5,2.8l-6.8-11.7L1960.6,1261.5z"/>
		<path class="st3" d="M1876.1,1008.5c-1.8-0.9-3.6-1.7-5.4-2.6c-1.8-0.9-3.6-1.8-5.2-2.7l-3-1.6l-1.7,7.4l3.4-0.1
			c1.9-0.1,3.8-0.1,5.9-0.1s4.1,0,6-0.1L1876.1,1008.5z M1883.1,1005.5l-2.2,9.5l-37.5,2.8l1.9-8.4l8.8-0.2l2.5-10.7l-7.8-4.1l1.9-8
			L1883.1,1005.5z"/>
		<path class="st3" d="M1878.2,1027.5l-1.2,8l-14.5-2.1v0.2l13,12.7l-1.3,8.8l-12.6-12.8l-23.2,9.6l1.3-8.8l16.2-6.5l-4.8-4.9
			l-9.5-1.4l1.2-8L1878.2,1027.5z"/>
		<path class="st3" d="M1874.1,1056.1l-1.8,27.8l-6.8-0.4l0.7-9.8l-29-1.9l0.5-8.1l29,1.9l0.6-9.8L1874.1,1056.1z"/>
		<path class="st3" d="M1872.5,1087.7l-0.1,8.1l-35.8-0.3l0.1-8.1L1872.5,1087.7z"/>
		<path class="st3" d="M1872.1,1098.2l0.4,8.6l-16.5,5.1c-1.9,0.6-3.8,1.2-5.7,1.7c-1.8,0.5-3.7,1.1-5.7,1.7v0.2
			c2,0.4,3.9,0.8,5.8,1.2c1.9,0.4,3.8,0.7,5.8,1.2l16.9,3.4l0.4,8.2l-36.3-9.1l-0.5-9.7L1872.1,1098.2z"/>
		<path class="st3" d="M1874.1,1131.7l0.8,8l-35.7,3.6l-0.8-8L1874.1,1131.7z"/>
		<path class="st3" d="M1875.6,1147l3.5,22.2l-6.7,1.1l-2.2-14.2l-7.1,1.1l1.9,12.1l-6.7,1.1l-1.9-12.1l-8.2,1.3l2.3,14.7l-6.7,1.1
			l-3.6-22.7L1875.6,1147z"/>
		<path class="st3" d="M1875.8,1184.4l-9.8,2.3l1,4.1c0.5,2.1,1.3,3.6,2.4,4.4c1.1,0.9,2.6,1.1,4.3,0.7c1.7-0.4,2.8-1.2,3.2-2.5
			c0.4-1.2,0.4-2.9-0.1-5L1875.8,1184.4z M1880.2,1175.1l2.9,12.6c0.4,1.8,0.7,3.6,0.7,5.3c0,1.7-0.2,3.3-0.8,4.7
			c-0.6,1.4-1.4,2.6-2.7,3.7c-1.2,1-2.9,1.8-4.9,2.3c-2.6,0.6-4.8,0.5-6.8-0.2c-1.9-0.7-3.5-2-4.8-3.7l-12.1,11.2l-2.1-8.8l11-9.6
			l-1-4.3l-12.6,2.9l-1.8-7.9L1880.2,1175.1z"/>
		<path class="st3" d="M1887.5,1205.6l2.5,7.7l-19.1,6.2c-3.3,1.1-5.5,2.3-6.5,3.8c-1,1.4-1.2,3.1-0.6,5s1.8,3.2,3.4,3.8
			c1.7,0.6,4.2,0.4,7.5-0.7l19.1-6.2l2.4,7.4l-18.3,5.9c-5.7,1.9-10.3,2.1-13.6,0.6c-3.4-1.4-5.8-4.3-7.2-8.8
			c-1.4-4.4-1.2-8.2,0.6-11.4c1.8-3.2,5.6-5.7,11.4-7.6L1887.5,1205.6z"/>
		<path class="st3" d="M1898.4,1238.3l3.3,7.6l-12.7,15.6l-5.9,6.3l0.1,0.2c1.7-0.9,3.6-1.9,5.6-3.1c2.1-1.1,4.1-2.1,6-3l11.6-5
			l3,7.1l-33,14.1l-3.3-7.6l12.8-15.6l5.8-6.3l-0.1-0.2c-1.8,1-3.6,2-5.6,3.1s-4,2.1-5.9,2.9l-11.7,5l-3-7.1L1898.4,1238.3z"/>
		<path class="st3" d="M1920.2,1283.2c1.2,2.3,1.9,4.5,1.9,6.6c0.1,2.1-0.2,3.9-0.7,5.6l-6.6-1.3c0.3-1.2,0.4-2.4,0.4-3.5
			c0-1.2-0.4-2.4-1.1-3.8c-0.7-1.2-1.5-2.2-2.5-3s-2.2-1.3-3.4-1.6s-2.7-0.3-4.1,0c-1.5,0.3-3,0.8-4.6,1.7c-3.3,1.8-5.4,3.9-6.4,6.3
			s-0.7,5.1,0.9,8.1c0.3,0.6,0.8,1.2,1.3,1.8c0.5,0.5,1,0.9,1.5,1.1l5.4-2.9l-2.8-5.2l5.8-3.1l6.2,11.5l-14.5,7.8
			c-1.7-0.5-3.4-1.5-5.1-2.9s-3.2-3.2-4.4-5.4c-1.2-2.2-1.9-4.4-2.2-6.6c-0.3-2.3-0.2-4.5,0.4-6.6s1.7-4.1,3.3-6
			c1.6-1.9,3.7-3.5,6.3-5c2.6-1.4,5.2-2.3,7.7-2.6c2.5-0.3,4.8-0.1,7,0.5s4.1,1.7,5.9,3.2
			C1917.6,1279.3,1919.1,1281.1,1920.2,1283.2z"/>
		<path class="st3" d="M2251.2,679.4l8.3,0.8l7.7,18.6l2.8,8.2h0.2c0-1.9,0-4.1-0.1-6.4c0-2.4,0.1-4.6,0.3-6.7l1.2-12.6l7.7,0.7
			l-3.3,35.7l-8.3-0.8l-7.7-18.7l-2.8-8.1h-0.2c0,2,0,4.1,0.1,6.4c0,2.3-0.1,4.5-0.2,6.6l-1.2,12.7l-7.7-0.7L2251.2,679.4z"/>
		<path class="st3" d="M2289.8,683.5l22.1,3.8l-1.2,6.7l-14.1-2.5l-1.2,7.1l12,2.1l-1.2,6.7l-12-2.1l-1.4,8.1l14.7,2.5l-1.2,6.7
			l-22.6-3.9L2289.8,683.5z"/>
		<path class="st3" d="M2321.5,689.3l7.9,2l-5,19.5c-0.9,3.4-1,5.9-0.3,7.5s2,2.7,3.9,3.2c2,0.5,3.6,0.2,5.1-0.9
			c1.4-1.1,2.6-3.3,3.4-6.7l5-19.4l7.6,1.9l-4.8,18.7c-1.5,5.8-3.7,9.8-6.8,11.8c-3,2.1-6.8,2.5-11.2,1.4c-4.5-1.2-7.6-3.4-9.3-6.6
			c-1.7-3.3-1.8-7.8-0.3-13.6L2321.5,689.3z"/>
		<path class="st3" d="M2364.7,708.1l-3.3,9.5l3.9,1.4c2,0.7,3.7,0.8,5.1,0.3c1.3-0.5,2.3-1.6,2.9-3.2c0.6-1.7,0.4-3-0.4-4
			c-0.8-1-2.3-1.9-4.3-2.6L2364.7,708.1z M2359.2,699.4l12.2,4.2c1.8,0.6,3.4,1.4,4.9,2.3c1.5,0.9,2.6,1.9,3.5,3.2
			c0.9,1.2,1.5,2.6,1.7,4.2c0.2,1.6,0,3.4-0.7,5.4c-0.9,2.5-2.1,4.4-3.8,5.6c-1.6,1.2-3.5,1.9-5.6,2.1l3,16.2l-8.6-2.9l-2.3-14.5
			l-4.2-1.4l-4.2,12.2l-7.7-2.6L2359.2,699.4z"/>
		<path class="st3" d="M2403.9,723c-2.2-1-4.4-0.8-6.6,0.4c-2.1,1.3-3.9,3.6-5.3,6.9c-1.4,3.3-1.9,6.2-1.5,8.7
			c0.5,2.5,1.8,4.2,4.1,5.2s4.5,0.8,6.6-0.6c2.1-1.4,3.9-3.7,5.4-7c1.4-3.3,1.9-6.2,1.4-8.6C2407.6,725.7,2406.2,724,2403.9,723z
			 M2406.7,716.6c2.2,1,4.1,2.2,5.6,3.8s2.6,3.3,3.3,5.4c0.7,2,0.9,4.2,0.7,6.6c-0.2,2.4-0.9,5-2,7.6c-1.2,2.7-2.6,4.9-4.2,6.7
			c-1.6,1.8-3.4,3.2-5.4,4.1c-2,0.9-4,1.4-6.2,1.4s-4.4-0.5-6.6-1.5c-2.2-1-4.1-2.2-5.6-3.8s-2.6-3.4-3.2-5.5
			c-0.7-2-0.9-4.3-0.7-6.7s0.9-5,2.1-7.7c1.2-2.7,2.6-4.9,4.2-6.7c1.6-1.8,3.4-3.1,5.4-4c1.9-0.9,4-1.3,6.1-1.2
			C2402.3,715.2,2404.5,715.7,2406.7,716.6z"/>
		<path class="st3" d="M2440.3,732.8c1.9,1,3.5,2.3,4.9,4s2.4,3.5,3.1,5.6l-6,2.6c-0.6-1.4-1.3-2.5-2.1-3.5s-1.9-1.8-3.1-2.5
			c-1.2-0.7-2.4-0.9-3.3-0.8c-1,0.1-1.7,0.6-2.2,1.5c-0.3,0.5-0.4,1-0.3,1.4c0.1,0.5,0.2,1,0.5,1.5s0.7,1,1.1,1.6
			c0.5,0.6,0.9,1.2,1.5,1.8l3.2,3.8c1.5,1.8,2.5,3.7,2.9,5.6c0.4,2,0,4-1.2,6.3c-0.7,1.3-1.6,2.4-2.8,3.3c-1.2,0.9-2.5,1.5-4,1.9
			s-3.1,0.4-4.9,0.2c-1.8-0.3-3.6-0.9-5.5-1.9c-2.1-1.1-3.9-2.6-5.6-4.4c-1.7-1.8-2.9-4-3.7-6.3l6.7-2.8c0.6,1.6,1.5,3,2.5,4.4
			c1.1,1.3,2.2,2.4,3.6,3.1c1.5,0.8,2.8,1.1,3.8,0.9c1-0.2,1.8-0.7,2.3-1.7c0.3-0.5,0.4-1,0.4-1.4c0-0.5-0.2-0.9-0.4-1.4
			c-0.3-0.5-0.6-1-1-1.5s-0.9-1.1-1.5-1.8l-3.2-3.9c-0.6-0.8-1.2-1.6-1.7-2.5s-0.9-1.9-1.1-2.9c-0.2-1-0.3-2.1-0.2-3.2
			c0.1-1.1,0.5-2.3,1.1-3.4c0.7-1.3,1.6-2.4,2.8-3.2c1.2-0.9,2.5-1.5,3.9-1.8c1.5-0.3,3-0.4,4.6-0.1
			C2437,731.4,2438.6,731.9,2440.3,732.8z"/>
		<path class="st3" d="M2467.1,756.3c-2.1-1.3-4.3-1.5-6.5-0.5c-2.3,0.9-4.4,2.9-6.3,6c-1.9,3.1-2.9,5.9-2.8,8.4
			c0.1,2.5,1.2,4.5,3.3,5.8s4.3,1.4,6.6,0.4s4.5-3.1,6.4-6.2c1.9-3,2.8-5.8,2.7-8.3C2470.3,759.5,2469.1,757.6,2467.1,756.3z
			 M2470.8,750.4c2.1,1.3,3.7,2.8,5,4.6s2.1,3.7,2.4,5.8c0.4,2.1,0.3,4.3-0.3,6.7s-1.6,4.8-3.1,7.2c-1.6,2.5-3.3,4.5-5.2,6
			s-3.9,2.6-5.9,3.2c-2.1,0.6-4.2,0.7-6.3,0.4s-4.2-1.1-6.3-2.4c-2.1-1.3-3.7-2.8-4.9-4.6s-2-3.8-2.4-5.9c-0.4-2.1-0.2-4.4,0.3-6.8
			c0.6-2.4,1.6-4.8,3.2-7.3c1.6-2.5,3.3-4.5,5.2-6s3.9-2.6,5.9-3.1c2-0.6,4.1-0.7,6.2-0.3C2466.6,748.3,2468.7,749.1,2470.8,750.4z"
			/>
		<path class="st3" d="M2491,764.4l19.6,14.4l-2.9,3.9l-27.1,10l12.9,9.5l-4.1,5.5l-20.9-15.4l2.9-3.9l27.1-10l-11.6-8.5L2491,764.4
			z"/>
		<path class="st3" d="M2516.4,783.8l6.2,5.1l-22.8,27.7l-6.2-5.1L2516.4,783.8z"/>
		<path class="st3" d="M2534.4,807.4c-1.6,1.1-3.3,2.2-5,3.4s-3.3,2.2-4.9,3.2l-2.9,1.8l5.6,5.2l1.6-3c0.8-1.7,1.8-3.4,2.8-5.2
			s2-3.6,2.9-5.3L2534.4,807.4z M2535.3,799.8l7.2,6.6l-16,34l-6.3-5.8l4.2-7.8l-8.1-7.4l-7.4,4.8l-6.1-5.6L2535.3,799.8z"/>
		<path class="st3" d="M2554.6,818.2l5.6,5.9l-21.1,19.9l9.7,10.3l-5,4.7l-15.3-16.2L2554.6,818.2z"/>
		<path class="st3" d="M2575.4,840.7l14.2,17.4l-5.3,4.3l-9.1-11.1l-5.6,4.6l7.7,9.5l-5.2,4.3l-7.7-9.5l-6.4,5.2l9.4,11.5l-5.3,4.3
			l-14.6-17.8L2575.4,840.7z"/>
		<path class="st3" d="M2282.5,749l22.2,4.1l-1.2,6.7l-14.3-2.6l-1.5,8.2l12.2,2.2l-1.2,6.7l-12.2-2.2l-2.5,13.7l-7.9-1.5
			L2282.5,749z"/>
		<path class="st3" d="M2312,754.7l7.8,2.2l-5.3,19.4c-0.9,3.4-1.1,5.9-0.4,7.5c0.7,1.6,1.9,2.7,3.9,3.2c1.9,0.5,3.6,0.3,5.1-0.8
			c1.4-1.1,2.6-3.3,3.6-6.7l5.3-19.4l7.5,2.1l-5.1,18.6c-1.6,5.8-3.9,9.7-7,11.7s-6.8,2.4-11.2,1.2c-4.5-1.2-7.6-3.5-9.2-6.8
			c-1.6-3.3-1.7-7.9-0.1-13.7L2312,754.7z M2334.4,750.2c1.1,0.3,1.9,0.9,2.4,1.8c0.5,0.9,0.6,1.9,0.3,2.9c-0.3,1.1-0.9,1.8-1.8,2.4
			c-0.9,0.5-1.9,0.6-3,0.3s-1.9-0.9-2.4-1.8c-0.5-0.9-0.6-1.9-0.3-2.9c0.3-1.1,0.9-1.8,1.8-2.4
			C2332.3,750,2333.3,749.9,2334.4,750.2z M2322.6,746.9c1.1,0.3,1.9,0.9,2.4,1.8c0.5,0.9,0.6,1.9,0.3,2.9c-0.3,1.1-0.9,1.8-1.8,2.4
			c-0.9,0.5-1.9,0.6-3,0.3s-1.9-0.9-2.4-1.8c-0.5-0.9-0.6-1.9-0.3-2.9c0.3-1.1,0.9-1.8,1.8-2.4
			C2320.5,746.7,2321.5,746.6,2322.6,746.9z"/>
		<path class="st3" d="M2349.2,765.5l7.6,2.9l-4.9,12.9l11.6,4.4l4.9-12.9l7.6,2.9l-12.8,33.5l-7.6-2.9l5.3-14l-11.6-4.4l-5.3,14
			l-7.6-2.9L2349.2,765.5z"/>
		<path class="st3" d="M2389.8,789.2l-4.4,9l3.8,1.8c1.9,0.9,3.6,1.2,5,0.9s2.5-1.3,3.3-2.8c0.8-1.6,0.8-2.9,0.1-4s-2-2.1-3.9-3.1
			L2389.8,789.2z M2385.3,779.9l11.6,5.7c1.7,0.8,3.2,1.8,4.6,2.8c1.3,1.1,2.4,2.3,3.1,3.6s1.1,2.8,1.2,4.4c0,1.6-0.4,3.4-1.3,5.3
			c-1.2,2.4-2.6,4.1-4.4,5.1c-1.8,1-3.7,1.5-5.9,1.4l1,16.5l-8.2-4l-0.5-14.6l-4-2l-5.7,11.6l-7.3-3.5L2385.3,779.9z"/>
		<path class="st3" d="M2417,795.7l7,4.2l-10.4,17.2c-1.8,3-2.6,5.4-2.4,7.1c0.2,1.7,1.1,3.1,2.9,4.2c1.7,1,3.4,1.2,5.1,0.6
			c1.7-0.6,3.4-2.4,5.2-5.5l10.4-17.2l6.7,4l-9.9,16.5c-3.1,5.1-6.4,8.3-9.9,9.4c-3.5,1.1-7.2,0.5-11.1-1.9c-4-2.4-6.3-5.4-7-9
			s0.5-8,3.6-13.2L2417,795.7z"/>
		<path class="st3" d="M2449.9,816.1l6.7,4.9l-3.1,19.9l-1.9,8.5l0.2,0.1c1-1.6,2.1-3.5,3.3-5.5s2.4-3.9,3.7-5.6l7.5-10.2l6.2,4.6
			l-21.3,28.9l-6.7-4.9l3.1-19.9l1.8-8.4l-0.2-0.1c-1,1.7-2.1,3.5-3.3,5.5s-2.4,3.8-3.6,5.5l-7.5,10.2l-6.2-4.6L2449.9,816.1z"/>
		<path class="st3" d="M2492.7,849.4c1.9,1.7,3.3,3.6,4,5.5c0.8,2,1.2,3.8,1.2,5.5l-6.6,1c-0.1-1.2-0.4-2.4-0.8-3.5
			c-0.4-1.1-1.2-2.2-2.3-3.2c-1-0.9-2.2-1.6-3.4-2s-2.5-0.5-3.8-0.3s-2.6,0.6-3.9,1.4c-1.3,0.8-2.5,1.8-3.7,3.1
			c-2.5,2.8-3.8,5.5-3.9,8.1c-0.1,2.6,1.1,5.1,3.6,7.3c0.5,0.5,1.1,0.9,1.8,1.2c0.6,0.3,1.2,0.5,1.8,0.5l4.1-4.6l-4.4-4l4.4-4.9
			l9.8,8.7l-11,12.3c-1.7,0.1-3.7-0.3-5.8-1s-4.1-2-6-3.6c-1.8-1.6-3.3-3.5-4.4-5.5c-1.1-2-1.7-4.1-1.8-6.3s0.2-4.5,1.1-6.8
			c0.9-2.3,2.3-4.6,4.3-6.8s4.1-3.9,6.3-5s4.5-1.8,6.8-1.9c2.3-0.1,4.5,0.2,6.6,1C2489,846.6,2490.9,847.8,2492.7,849.4z"/>
		<path class="st3" d="M2343.7,1400l7.7-3l15.2,13.2l6.2,6.1l0.2-0.1c-0.9-1.7-1.8-3.6-2.9-5.7c-1.1-2.1-2-4.2-2.8-6.1l-4.6-11.8
			l7.2-2.8l13,33.4l-7.7,3l-15.3-13.2l-6.1-6l-0.2,0.1c0.9,1.8,1.9,3.7,2.9,5.7s2,4,2.7,6l4.6,11.8l-7.2,2.8L2343.7,1400z"/>
		<path class="st3" d="M2375.4,1387.2l20.1-10l3,6.1l-12.8,6.4l3.2,6.4l10.9-5.5l3,6.1l-10.9,5.4l3.7,7.4l13.3-6.7l3.1,6.1
			l-20.6,10.3L2375.4,1387.2z"/>
		<path class="st3" d="M2398,1375.9l23.8-14.4l3.5,5.8l-8.4,5.1l15,24.8l-7,4.2l-15-24.8l-8.4,5.1L2398,1375.9z"/>
		<path class="st3" d="M2424,1360l19.8-14.1l2.8,4l1.2,28.9l13-9.3l4,5.6l-21.1,15.1l-2.8-4l-1.2-28.8l-11.7,8.3L2424,1360z"/>
		<path class="st3" d="M2444.4,1345.8l6.3-5.4l12.9,11.1c1.4,1.3,2.8,2.5,4.2,3.8s2.8,2.5,4.3,3.8l0.2-0.1c-1-1.7-1.9-3.3-2.9-5
			c-1-1.6-1.9-3.3-2.9-5l-8.1-15.2l5.2-4.5l13.9,10.2c1.5,1.2,3,2.3,4.5,3.5s3,2.4,4.6,3.6l0.2-0.1c-1.1-1.6-2.1-3.2-3.2-4.8
			c-1.1-1.6-2.1-3.2-3.1-4.7l-9.1-14.3l5.9-5.1l18.7,31.3l-7.7,6.7l-13.3-10c-1.1-0.9-2.2-1.7-3.4-2.7c-1.1-0.9-2.1-1.8-3.2-2.7
			l-0.2,0.2c0.7,1.1,1.4,2.3,2.2,3.5c0.7,1.2,1.5,2.5,2.1,3.7l8.1,14.5l-7.6,6.5L2444.4,1345.8z"/>
		<path class="st3" d="M2478.5,1315.5l15.5-16.2l4.9,4.7l-9.9,10.4l5.2,5l8.4-8.8l4.9,4.7l-8.4,8.8l6,5.7l10.3-10.8l4.9,4.7
			l-15.9,16.6L2478.5,1315.5z"/>
		<path class="st3" d="M2507.8,1292.8l7.9,6.3l2.6-3.3c1.3-1.7,2-3.2,2-4.6s-0.7-2.7-2.1-3.8c-1.4-1.1-2.7-1.4-3.9-1
			s-2.5,1.5-3.9,3.1L2507.8,1292.8z M2497.7,1295.1l8.1-10.1c1.2-1.5,2.5-2.8,3.8-3.8c1.3-1.1,2.7-1.8,4.2-2.2
			c1.5-0.4,3-0.5,4.5-0.2c1.6,0.3,3.2,1.2,4.9,2.5c2.1,1.7,3.4,3.5,4,5.4c0.6,2,0.6,4,0.1,6l16.3,2.6l-5.7,7.1l-14.4-2.7l-2.8,3.5
			l10.1,8.1l-5.1,6.3L2497.7,1295.1z"/>
		<path class="st3" d="M2517.1,1270.5l4.4-6.8l12.3,8.1l0.1-0.2l-6.4-17l4.9-7.4l6,16.9l25.1,1.2l-4.9,7.4l-17.4-1l2.3,6.5l8,5.3
			l-4.5,6.8L2517.1,1270.5z"/>
		<path class="st3" d="M2336,1470.6l8.2-2.4l8.8,14.8c1.1,1.8,2.1,3.4,3,5.1s1.9,3.4,3,5.1l0.2-0.1c-0.1-2-0.1-4-0.2-5.9
			c-0.1-1.9-0.2-3.9-0.2-5.9l-0.6-17.2l7.9-2.3l-0.3,37.4l-9.3,2.7L2336,1470.6z"/>
		<path class="st3" d="M2383.3,1462c-2.3,0.9-3.7,2.5-4.4,4.9c-0.6,2.4-0.3,5.3,1,8.6c1.3,3.4,3,5.8,5.1,7.3
			c2.1,1.4,4.3,1.7,6.6,0.8c2.3-0.9,3.7-2.6,4.3-5c0.6-2.5,0.2-5.4-1.1-8.8c-1.3-3.3-3-5.7-5-7.1
			C2387.7,1461.3,2385.5,1461.1,2383.3,1462z M2380.7,1455.4c2.3-0.9,4.5-1.3,6.6-1.2c2.2,0.1,4.2,0.6,6.1,1.5
			c1.9,1,3.6,2.4,5.2,4.2c1.6,1.9,2.9,4.1,3.9,6.8c1.1,2.7,1.6,5.3,1.7,7.8c0.1,2.4-0.2,4.7-1,6.7s-1.9,3.8-3.5,5.3
			s-3.5,2.7-5.7,3.6c-2.3,0.9-4.5,1.3-6.6,1.2c-2.2-0.1-4.2-0.6-6.1-1.6c-1.9-1-3.6-2.4-5.2-4.3c-1.6-1.9-2.9-4.2-3.9-6.9
			c-1.1-2.7-1.6-5.3-1.7-7.7c-0.1-2.4,0.3-4.6,1-6.6c0.8-2,1.9-3.7,3.5-5.2C2376.6,1457.5,2378.5,1456.3,2380.7,1455.4z"/>
		<path class="st3" d="M2400.3,1448.3l7.5-3.7l16.2,11.9l6.7,5.6l0.2-0.1c-1-1.6-2.1-3.4-3.4-5.4s-2.3-4-3.3-5.9l-5.6-11.3l6.9-3.4
			l15.8,32.2l-7.5,3.7l-16.3-11.9l-6.6-5.5l-0.2,0.1c1,1.7,2.2,3.5,3.4,5.5c1.2,1.9,2.3,3.9,3.2,5.8l5.6,11.4l-6.9,3.4
			L2400.3,1448.3z"/>
		<path class="st3" d="M2440.1,1427.6l19.1-11.9l3.6,5.8l-12.2,7.6l3.8,6.1l10.4-6.4l3.6,5.7l-10.4,6.4l4.4,7l12.7-7.9l3.6,5.8
			l-19.5,12.2L2440.1,1427.6z"/>
		<path class="st3" d="M2461.8,1414.1l7.3-5.3l6.5,3.7c0.8,0.5,1.7,0.9,2.6,1.5c0.9,0.5,1.9,1.1,2.9,1.7l0.2-0.1
			c-0.3-1.2-0.6-2.2-0.9-3.2c-0.2-1-0.4-1.9-0.6-2.8l-1.6-7.2l7-5l2.9,19.9l18.6,8.8l-7.3,5.3l-7.2-3.8c-0.9-0.5-1.8-1-2.7-1.5
			s-1.9-1.1-2.9-1.7l-0.2,0.1c0.3,1.1,0.6,2.2,0.8,3.2s0.4,2,0.7,3l1.6,7.9l-7.1,5.1l-2.7-20.8L2461.8,1414.1z"/>
		<path class="st3" d="M2498.2,1394.8l6.9,8.3l3-2.5c3.4-2.8,3.9-5.7,1.4-8.6c-1.2-1.4-2.5-2.1-3.9-1.9s-2.9,0.9-4.6,2.4
			L2498.2,1394.8z M2487.9,1395l9.5-7.9c1.5-1.3,3.1-2.3,4.6-3.1c1.6-0.8,3.1-1.3,4.7-1.4s3.1,0.1,4.6,0.8c1.5,0.7,3,1.8,4.4,3.5
			c1.3,1.6,2.2,3.2,2.6,4.9c0.4,1.7,0.4,3.3,0.1,4.9c-0.4,1.6-1,3.1-2,4.5s-2.2,2.8-3.7,4l-3.4,2.8l7.8,9.3l-6.2,5.2L2487.9,1395z"
			/>
		<path class="st3" d="M2511.5,1375.1l16.2-15.5l4.7,4.9l-10.4,9.9l5,5.2l8.8-8.4l4.7,4.9l-8.8,8.4l5.7,6l10.8-10.3l4.7,4.9
			l-16.6,15.9L2511.5,1375.1z"/>
		<path class="st3" d="M2542.1,1353.7l7.4,6.8l2.8-3.1c1.4-1.6,2.2-3.1,2.3-4.5s-0.5-2.7-1.8-3.9c-1.3-1.2-2.6-1.6-3.8-1.2
			c-1.3,0.4-2.6,1.3-4.1,2.9L2542.1,1353.7z M2531.9,1355.3l8.7-9.6c1.3-1.4,2.6-2.6,4-3.6s2.8-1.7,4.3-2s3-0.3,4.5,0.1
			c1.6,0.4,3.1,1.3,4.7,2.8c2,1.8,3.2,3.7,3.7,5.7s0.4,4-0.3,6l16.1,3.6l-6.1,6.7l-14.2-3.6l-3,3.3l9.6,8.7l-5.4,6L2531.9,1355.3z"
			/>
		<path class="st3" d="M2551.3,1333.8l17.1-21.9l5.4,4.2l-6.1,7.8l22.9,17.9l-5,6.4l-22.9-17.9l-6.1,7.8L2551.3,1333.8z"/>
		<path class="st3" d="M2570.4,1308.9l12.5-18.6l5.7,3.8l-8,11.9l6,4l6.8-10.2l5.6,3.8l-6.8,10.1l6.9,4.6l8.3-12.4l5.7,3.8
			l-12.8,19.1L2570.4,1308.9z"/>
		<path class="st3" d="M2586,1285.5l4-7.3l20.1,0.5l8.6,0.8l0.1-0.2c-1.8-0.8-3.7-1.6-5.9-2.6c-2.2-0.9-4.2-1.9-6-2.9l-11.1-6.2
			l3.8-6.7l31.3,17.4l-4,7.3l-20.2-0.5l-8.5-0.7l-0.1,0.2c1.8,0.8,3.8,1.7,5.9,2.5c2.1,0.9,4.1,1.9,5.9,2.9l11.1,6.2l-3.7,6.7
			L2586,1285.5z"/>
	</g>
</g>
<path class="st4" d="M496.3,560.3c0-37.2,0-74.2,0-111.5c8.6,0,17.3,0,26.1,0c0,29.6,0,59.1,0,89c14.7,0,29.3,0,43.9,0
	c0,7.7,0,15,0,22.5C543.1,560.3,519.9,560.3,496.3,560.3z"/>
<path class="st4" d="M400.9,601.6c0.1-15.3,0.1-30.6,0.1-45.8c0.1-23,0.1-46,0.2-69.1c0-1.3,0.2-2.6,0.3-3.9
	c1.3,3.5,2.1,6.9,2.8,10.4c4.4,21.7,8.8,43.5,13.1,65.2c0.3,1.7,1.1,2.3,2.8,2.2c5.7-0.1,11.3-0.1,17,0c1.6,0,2.2-0.6,2.5-2.1
	c2.5-13.8,5.1-27.7,7.8-41.5c2.3-12.1,4.8-24.2,7.2-36.3c0.2,0,0.3,0,0.5,0c0,26.5,0,53,0,79.7c8.4,0,16.6,0,24.9,0
	c0-37.4,0-74.6,0-112c-12.4,0-24.6,0-36.8,0c-1.8,0-2.1,0.9-2.4,2.3c-3.2,18.8-6.4,37.7-9.7,56.5c-0.6,3.5-1.2,7-1.9,11
	c-0.5-0.8-0.6-1-0.6-1.2c-4-21.9-8-43.8-11.9-65.8c-0.4-2.2-1.1-2.9-3.4-2.9c-11,0.1-22,0-33,0c-1,0-1.9,0.1-3.2,0.1
	c0,49.7,0,108.1,0,159.3c7.2,8.6,15.2,16.4,23.8,23.2c-0.2-0.6-0.2-1.2-0.2-1.9C400.7,620,400.8,610.8,400.9,601.6z"/>
<path class="st4" d="M581,448.4c8.9,0,17.6,0,26.5,0c0,37.3,0,74.5,0,112c-8.8,0-17.5,0-26.5,0C581,523.2,581,485.9,581,448.4z"/>
</svg>
