<?xml version="1.0" encoding="utf-8"?>
<!-- Generator: Adobe Illustrator 27.8.1, SVG Export Plug-In . SVG Version: 6.00 Build 0)  -->
<svg version="1.1" id="Ebene_1" xmlns="http://www.w3.org/2000/svg" xmlns:xlink="http://www.w3.org/1999/xlink" x="0px" y="0px"
	 viewBox="0 0 100 100" style="enable-background:new 0 0 100 100;" xml:space="preserve">
<style type="text/css">
	.st0{fill:#AE144A;}
</style>
<g>
	<g transform="translate(-433 -312)">
		<g>
			<g>
				<g>
					<g>
						<g>
							<g>
								<g>
									<path class="st0" d="M520.3,372l-12.6,6.8l-1.2,0.6c0,0.2,0,0.4,0,0.5c0,0.6-0.5,1.1-1.1,1.1c0,0,0,0-0.1,0l-8.7-0.4
										c-2.5-0.1-5.1,0-7.6,0.4c-0.6,0.1-1.2-0.3-1.3-1c-0.1-0.6,0.3-1.2,1-1.3l0,0c2.7-0.4,5.3-0.5,8-0.4l7.4,0.3
										c-0.6-3-3.2-5.2-6.3-5.2h-10.2c-2,0-4-0.5-5.8-1.3l-1-0.5c-5.3-2.6-11.6-2-16.3,1.6l-2.5,2.2c-1.2,1.1-2.6,1.9-4.2,2.3
										l5,16.4l7-4.4c0,0,0,0,0.1,0c1.5-0.8,3.3-1.1,5-0.7l15.2,2.8c3.6,0.7,7.4,0.1,10.7-1.5l25.4-17.4
										C524.7,371.3,522.3,370.9,520.3,372z"/>
								</g>
								<g>
									<path class="st0" d="M506.6,376.8l10-5.4c-1.1-1.1-2.9-1.6-4.3-0.9l-7.7,4.2c0.6,0.8,1.1,1.6,1.4,2.5L506.6,376.8z"/>
								</g>
								<g>
									<path class="st0" d="M454.7,400.2c0.7,0,1.3-0.6,1.3-1.3c0-0.7-0.6-1.3-1.3-1.3c-0.7,0-1.3,0.6-1.3,1.3
										C453.4,399.6,454,400.2,454.7,400.2z"/>
								</g>
								<g>
									<path class="st0" d="M502.2,370.1C502.1,370.1,502.1,370.2,502.2,370.1l-2.5,1.3c1.2,0.3,2.3,0.8,3.3,1.5l5.1-2.7
										C506.2,369.1,504,369.1,502.2,370.1z"/>
								</g>
								<g>
									<path class="st0" d="M443.7,372.4l3.8,31.2h15.8l-9.5-31.2H443.7z M458.3,398.9c0,2-1.6,3.6-3.6,3.6s-3.6-1.6-3.6-3.6
										s1.6-3.6,3.6-3.6l0,0C456.7,395.3,458.3,396.9,458.3,398.9z"/>
								</g>
								<g>
									<path class="st0" d="M485.2,336.9c3.5,0,6.4-2.9,6.4-6.4v-3.8c0-3.5-2.9-6.4-6.4-6.4s-6.4,2.9-6.4,6.4v3.8
										C478.8,334,481.7,336.9,485.2,336.9z"/>
								</g>
								<g>
									<path class="st0" d="M507.2,339.4c3,0,5.4-2.4,5.4-5.4v-3.3c0-3-2.4-5.4-5.4-5.4s-5.4,2.4-5.4,5.4v3.3
										C501.7,336.9,504.2,339.4,507.2,339.4z"/>
								</g>
								<g>
									<path class="st0" d="M463.2,339.4c3,0,5.4-2.4,5.4-5.4v-3.3c0-3-2.5-5.4-5.5-5.4s-5.4,2.4-5.4,5.4v3.3
										C457.8,336.9,460.2,339.4,463.2,339.4z"/>
								</g>
								<g>
									<path class="st0" d="M518.2,350.4c0-3.1-2.3-5.7-5.3-6.2c-2.8,3.1-7.5,3.4-10.6,0.6c-0.2-0.2-0.4-0.4-0.6-0.6
										c-0.9,0.1-1.7,0.4-2.4,0.8c0.7,1.4,1.1,2.8,1.1,4.4v7.3h18v-6.3H518.2z"/>
								</g>
								<g>
									<path class="st0" d="M472.4,349.3v11.1H498v-11.1c0-3.7-2.7-6.7-6.3-7.2c-3.1,3.5-8.4,3.9-11.9,0.8
										c-0.3-0.3-0.6-0.5-0.8-0.8C475.2,342.4,472.4,345.6,472.4,349.3z"/>
								</g>
								<g>
									<path class="st0" d="M452.1,350.4v6.3h18v-7.3c0-1.5,0.4-3,1-4.4c-0.7-0.4-1.4-0.7-2.2-0.8c-2.8,3.1-7.5,3.4-10.6,0.6
										c-0.2-0.2-0.4-0.4-0.6-0.6C454.5,344.5,452.1,347.2,452.1,350.4z"/>
								</g>
							</g>
						</g>
					</g>
				</g>
			</g>
		</g>
	</g>
</g>
</svg>
