<?xml version="1.0" encoding="utf-8"?>
<!-- Generator: Adobe Illustrator 27.8.1, SVG Export Plug-In . SVG Version: 6.00 Build 0)  -->
<svg version="1.1" id="Ebene_1" xmlns="http://www.w3.org/2000/svg" xmlns:xlink="http://www.w3.org/1999/xlink" x="0px" y="0px"
	 viewBox="0 0 100 100" style="enable-background:new 0 0 100 100;" xml:space="preserve">
<style type="text/css">
	.st0{display:none;}
	.st1{display:inline;}
	.st2{fill-rule:evenodd;clip-rule:evenodd;}
	.st3{fill:#FF9201;}
	.st4{fill:#FFFFFF;}
</style>
<g class="st0">
	<path class="st1" d="M77.1,37.4c-0.4,0.3-7.3,4.2-7.3,12.8c0,9.9,8.7,13.5,9,13.6c0,0.2-1.4,4.8-4.6,9.5c-2.9,4.1-5.9,8.3-10.4,8.3
		s-5.7-2.6-11-2.6c-5.1,0-7,2.7-11.1,2.7s-7.1-3.8-10.4-8.5c-3.9-5.5-7-14.1-7-22.2c0-13,8.5-19.9,16.8-19.9c4.4,0,8.1,2.9,10.9,2.9
		c2.6,0,6.8-3.1,11.8-3.1C65.7,30.7,72.5,30.9,77.1,37.4L77.1,37.4z M61.4,25.2c2.1-2.5,3.6-5.9,3.6-9.3c0-0.5,0-1-0.1-1.3
		c-3.4,0.1-7.4,2.3-9.9,5.1c-1.9,2.2-3.7,5.6-3.7,9.1c0,0.5,0.1,1,0.1,1.2c0.2,0,0.6,0.1,0.9,0.1C55.3,30,59.2,27.9,61.4,25.2
		L61.4,25.2z"/>
</g>
<g class="st0">
	<g id="_x23_333333ff" class="st1">
		<path id="Layer" class="st2" d="M50.1,17.2c2.7-0.2,5.4,0.1,8.1,0.8c1.3,0.4,2.6,0.9,3.8,1.6c1.8,1,3.3,2.4,4.3,4.2
			c0.9,1.6,1.3,3.4,1.5,5.1c0.2,2,0.2,4.1,0.1,6.1c0,3.8,0,7.7,0,11.5c0,1.3-0.1,2.6,0.2,3.8c0.2,1.2,0.8,2.4,1.5,3.4
			c0.5,0.7,1,1.4,1.6,2.2c0.4,0.6,0.5,1.5-0.1,2c-2.1,1.7-4.1,3.5-6.1,5.2c-0.3,0.3-0.7,0.6-1.1,0.6c-0.5,0.1-1,0-1.4-0.4
			c-1.1-0.9-2.1-1.8-2.9-2.9c-0.6-0.8-1.1-1.6-1.7-2.4c-1.2,1.2-2.4,2.3-3.7,3.2c-1.5,1-3.1,1.8-4.8,2.2c-1.9,0.5-3.8,0.5-5.7,0.5
			c-1.3-0.1-2.6-0.2-3.8-0.6c-1.5-0.4-2.9-1.2-4-2.2c-1.6-1.3-2.7-3.1-3.3-5c-0.6-1.9-0.8-3.8-0.7-5.8c0.1-2.6,0.9-5.3,2.4-7.5
			c1.2-1.8,2.9-3.3,4.8-4.4c2.1-1.2,4.4-1.8,6.7-2.3c3.5-0.7,7.1-1,10.6-1.4c0-1.5,0.1-3-0.1-4.4c-0.2-1.3-0.6-2.6-1.6-3.4
			c-1.2-1-2.8-1.4-4.3-1.3c-1.7,0-3.5,0.7-4.7,1.9c-0.8,0.8-1.3,1.9-1.6,3c-0.1,0.6-0.5,1.3-1.2,1.5c-0.3,0.1-0.5,0-0.8,0
			c-2.5-0.2-4.9-0.5-7.4-0.8c-0.4,0-0.7-0.2-1-0.4c-0.4-0.3-0.5-0.9-0.4-1.3c0.5-2.9,1.9-5.6,4-7.7c2.2-2.2,5.1-3.5,8.1-4.2
			C46.8,17.5,48.4,17.3,50.1,17.2z M50.2,42.3c-1.6,0.4-3.2,1.1-4.4,2.2c-1.3,1.2-1.9,2.9-2,4.6c-0.1,1.5,0.1,3.1,0.8,4.4
			c0.7,1.3,2.1,2.2,3.5,2.3c1.3,0.2,2.6-0.2,3.7-0.8c1.1-0.7,2-1.7,2.7-2.8c0.8-1.4,1.3-2.9,1.5-4.5c0.2-2,0.1-4.1,0.1-6.1
			C54.2,41.7,52.2,41.8,50.2,42.3z"/>
	</g>
	<g id="_x23_ff9201ff" class="st1">
		<path id="Layer_00000168089891646139992470000015939868116500001704_" class="st3" d="M81.1,62.6c1.3-0.1,2.6-0.1,3.8,0.1
			c0.9,0.1,1.8,0.3,2.5,0.7c0.2,0.1,0.3,0.5,0.4,0.7c0.1,0.8,0,1.7-0.1,2.5c-0.3,1.6-0.7,3.2-1.4,4.7c-0.7,1.5-1.6,3-2.9,4.1
			c-0.2,0.2-0.5,0.5-0.8,0.5c-0.2,0-0.4,0-0.5-0.2c-0.1-0.3,0-0.6,0.1-0.8c0.6-1.6,1.2-3.1,1.7-4.7c0.3-1,0.5-2,0.6-3
			c0-0.4-0.1-1-0.4-1.3c-0.3-0.3-0.8-0.4-1.2-0.5c-0.9-0.1-1.8-0.2-2.8-0.1c-1.7,0-3.3,0.2-5,0.4c-0.2,0-0.5,0.1-0.7-0.1
			c-0.2-0.2-0.1-0.6,0-0.8c0.3-0.4,0.8-0.6,1.2-0.9C77.4,63.2,79.2,62.8,81.1,62.6z"/>
		<path id="Layer_00000121256611650540178620000006086579637889323408_" class="st3" d="M15.5,64c0.4-0.2,0.8,0.1,1.2,0.3
			c4.9,2.8,10.1,4.9,15.4,6.5c1.9,0.5,3.7,1,5.6,1.4c1.1,0.2,2.1,0.4,3.2,0.6c2,0.3,4,0.6,6,0.7c4.8,0.3,9.6,0.2,14.4-0.4
			c3.9-0.5,7.7-1.4,11.5-2.5c2.4-0.7,4.8-1.6,7.1-2.6c0.6-0.2,1.4,0,1.6,0.7c0.1,0.5-0.2,1-0.7,1.3c-2.5,1.8-5.2,3.3-8,4.5
			c-4.1,1.8-8.3,3-12.7,3.7c-2,0.3-4.1,0.6-6.2,0.7c-2.1,0.1-4.2,0.1-6.3,0c-3-0.2-5.9-0.6-8.8-1.3c-1.8-0.5-3.6-0.9-5.4-1.6
			C27,73.6,20.9,70,15.7,65.4c-0.2-0.2-0.5-0.4-0.6-0.7C15.1,64.4,15.2,64.1,15.5,64z"/>
	</g>
</g>
<g>
	<g>
		<path class="st4" d="M50,16.2c18.8,0,34,15.2,33.9,34c-0.1,19.1-15.8,34-34.4,33.7c-18-0.3-33.3-14.9-33.3-33.8
			C16.1,31.2,31.4,16.2,50,16.2z M43.7,34.1c-1.4,0.1-4.2,0.3-7,0.5c-2.7,0.3-5.3,0.8-7.9,1.6c-1.7,0.5-2.6,2.3-2.1,3.9
			c0.5,1.6,2.2,2.6,3.9,2.1c0.5-0.1,1-0.3,1.5-0.4c5-1.2,10.1-1.6,15.2-1.4c3.4,0.1,6.8,0.5,10.2,1.2c4.4,0.9,8.7,2.3,12.6,4.6
			c1.1,0.6,2.2,0.5,3.3-0.2c1.9-1.3,1.8-4.1-0.2-5.3c-2.1-1.3-4.3-2.3-6.6-3.1C59.7,35.1,52.5,34.1,43.7,34.1z M70,54.1
			c0-0.8-0.5-1.5-1.3-2c-1.9-1.2-4-2.2-6.1-3c-6.7-2.6-13.7-3.6-20.9-3.3c-3.7,0.2-7.3,0.8-10.9,1.8c-1.4,0.4-2.2,1.9-1.8,3.3
			c0.4,1.4,1.9,2.2,3.3,1.7c4.3-1.3,8.8-1.8,13.3-1.6c4.5,0.1,8.8,0.8,13,2.2c2.6,0.8,5.1,2,7.4,3.4C67.8,57.7,70,56.4,70,54.1z
			 M30.3,60.3c0,1.4,1.3,2.3,2.8,2c4.5-1,9-1.6,13.6-1.3c5.7,0.3,11,1.7,15.9,4.6c1.1,0.6,2.3,0.3,2.9-0.7c0.6-1,0.3-2.3-0.8-2.9
			c-1.1-0.6-2.1-1.2-3.2-1.7c-5.9-2.8-12.2-3.8-18.7-3.5c-3.7,0.2-7.3,0.7-10.8,1.5C31,58.5,30.3,59.3,30.3,60.3z"/>
	</g>
</g>
</svg>
