<?xml version="1.0" encoding="utf-8"?>
<!-- Generator: Adobe Illustrator 27.8.1, SVG Export Plug-In . SVG Version: 6.00 Build 0)  -->
<svg version="1.1" id="Ebene_1" xmlns="http://www.w3.org/2000/svg" xmlns:xlink="http://www.w3.org/1999/xlink" x="0px" y="0px"
	 viewBox="0 0 48 47" style="enable-background:new 0 0 48 47;" xml:space="preserve">
<style type="text/css">
	.st0{fill-rule:evenodd;clip-rule:evenodd;fill:#CC9D42;}
</style>
<g>
	<g transform="translate(-2937 -682)">
		<path class="st0" d="M2969.7,699.1l-11.7,11.1l-5.6-5.8l-1.9,1.9l7.5,7.7l2-1.8l11.7-11.1L2969.7,699.1z M2958.6,685.7h4.7l2,4.1
			c1.3,0.4,2.5,0.9,3.7,1.5l4.4-1.5l3.3,3.3l-1.5,4.4c0.6,1.1,1.2,2.3,1.5,3.6l4.1,2v4.7l-4.1,2c-0.3,1.3-0.9,2.5-1.5,3.7l1.5,4.4
			l-3.3,3.3l-4.4-1.5c-1.1,0.6-2.3,1.2-3.6,1.5l-2,4.1h-4.7l-2-4.1c-1.3-0.4-2.5-0.9-3.7-1.5l-4.4,1.5l-3.3-3.3l1.5-4.4
			c-0.6-1.1-1.2-2.3-1.5-3.6l-4.1-2v-4.7l4.1-2c0.3-1.3,0.9-2.5,1.5-3.7l-1.5-4.4l3.3-3.3l4.4,1.5c1.1-0.6,2.3-1.2,3.6-1.5
			L2958.6,685.7z"/>
	</g>
</g>
</svg>
